PathFileType	4	(X/Y/Z)	c:/Users/goper/Files/vsCode/490R/osim_files/C10/C10_SSWS_01.trc
DataRate	CameraRate	NumFrames	NumMarkers	Units                	OrigDataRate	OrigDataStartFrame	OrigNumFrames
250.00	250.00	11	36	mm	250.0	934	2489
                Frame#	Time	LPSIS			LASIS			LTH1			LTH2			LTH3			LTH4			LLFE			LMFE			LSH1			LSH2			LSH3			LSH4			LLMAL			LMMAL			LCAL			LMTP5			LTOE			LMTP1			RPSIS			RASIS			RTH1			RTH2			RTH3			RTH4			RLFE			RMFE			RSH1			RSH2			RSH3			RSH4			RLMAL			RMMAL			RCAL			RMTP1			RTOE			RMTP5		
		X1	Y1	Z1	X2	Y2	Z2	X3	Y3	Z3	X4	Y4	Z4	X5	Y5	Z5	X6	Y6	Z6	X7	Y7	Z7	X8	Y8	Z8	X9	Y9	Z9	X10	Y10	Z10	X11	Y11	Z11	X12	Y12	Z12	X13	Y13	Z13	X14	Y14	Z14	X15	Y15	Z15	X16	Y16	Z16	X17	Y17	Z17	X18	Y18	Z18	X19	Y19	Z19	X20	Y20	Z20	X21	Y21	Z21	X22	Y22	Z22	X23	Y23	Z23	X24	Y24	Z24	X25	Y25	Z25	X26	Y26	Z26	X27	Y27	Z27	X28	Y28	Z28	X29	Y29	Z29	X30	Y30	Z30	X31	Y31	Z31	X32	Y32	Z32	X33	Y33	Z33	X34	Y34	Z34	X35	Y35	Z35	X36	Y36	Z36

934	3.73200	121.76762	991.38611	343.43555	-39.04837	969.24646	465.43085	36.30225	734.62683	500.35376	29.87823	687.76196	493.68909	-21.99553	739.38007	488.02423	-19.41649	693.04877	480.55722	0.00000	0.00000	0.00000	26.58810	429.79895	319.79126	138.89021	420.43970	438.12012	176.92607	391.32263	441.72095	104.30447	369.73953	427.53043	148.69350	352.38318	432.40314	381.47067	214.49908	396.07574	0.00000	0.00000	0.00000	448.25217	265.03918	368.10388	409.51617	84.64034	371.56775	371.37610	67.74444	302.06314	401.36386	105.58557	265.64691	119.95171	997.11145	260.00299	-36.48915	998.14124	131.81781	-27.26527	724.07605	88.00657	-47.27719	684.45386	95.91557	-84.29161	745.75714	94.08050	-97.37247	703.19073	99.94363	-135.58217	483.23914	179.16168	-130.60130	487.20392	290.35782	-76.57456	382.80542	165.33687	-85.17596	340.53122	165.43954	-138.55042	388.43680	177.02934	-136.95082	346.88675	174.89848	-117.53243	83.92774	229.06134	-125.35380	96.41640	309.92157	-59.75807	41.46144	264.73871	-249.30247	30.07504	313.80722	-283.68787	49.50559	285.11191	-243.10083	31.44522	217.05429
935	3.73600	116.94025	991.64465	343.47314	-43.52192	970.38531	465.55624	29.16182	734.62671	500.35175	22.17998	687.88342	493.73947	-29.03770	740.12677	487.88678	-26.97708	693.83173	480.51572	0.00000	0.00000	0.00000	15.30916	430.46280	319.50369	126.69740	420.99420	438.35242	165.06963	392.22180	442.13791	92.72371	370.14938	427.86093	135.04495	352.86081	433.19611	371.68732	217.77457	397.00204	0.00000	0.00000	0.00000	439.66116	267.73190	368.47186	398.44650	88.04179	373.30258	360.22784	71.32140	303.76517	390.73633	108.06081	267.09363	114.66764	997.58984	260.22079	-41.50358	998.78845	131.36523	-31.06572	724.50098	87.58510	-49.97687	685.00116	95.57457	-87.50238	745.99957	93.83234	-100.26283	703.39636	99.53664	-137.87143	483.43521	179.48265	-132.16109	486.91034	290.53018	-77.36688	383.12796	165.66838	-85.76575	340.81494	165.67007	-139.28445	388.66016	176.91832	-137.64998	346.88858	174.75423	-117.56400	83.94319	229.11398	-125.53541	96.20787	309.36545	-59.74839	41.41351	264.75714	-249.30881	29.89249	313.84222	-283.67645	49.31009	285.14874	-243.10307	31.42571	217.02156
936	3.74000	112.21193	992.07721	343.33170	-47.83596	971.48071	465.77701	22.07256	734.78632	500.29684	14.51326	688.14551	493.77838	-36.08034	741.07172	487.76105	-34.55378	694.69025	480.46176	0.00000	0.00000	0.00000	4.04485	431.25507	319.26468	114.48042	421.74365	438.52740	153.23184	393.39020	442.51077	80.97135	370.79474	428.08289	121.92163	354.10507	434.38150	361.69495	221.11954	397.85300	0.00000	0.00000	0.00000	430.76431	270.12500	368.77982	387.21259	91.50601	375.00342	348.24902	74.41478	305.68613	379.27493	110.35176	268.72467	109.55188	998.18811	260.25650	-46.58155	999.43671	130.92024	-32.89952	725.41681	87.80442	-53.15524	685.76697	95.18700	-90.54504	746.52930	93.75043	-103.07443	703.89465	99.17286	-139.93385	483.61334	179.68408	-133.85431	486.68558	290.57562	-78.20600	383.53183	165.87604	-86.35837	341.13754	165.77492	-140.24448	388.71286	176.82637	-137.74455	347.27814	174.40099	-117.59525	83.95648	229.14555	-125.67292	96.43956	309.70886	-59.73218	41.40987	264.73331	-249.29968	29.78303	313.87613	-283.70782	49.17360	285.18442	-243.11490	31.42558	216.98877
937	3.74400	107.56746	992.54980	343.09161	-52.17405	972.63843	466.06638	14.97685	735.14960	500.27744	6.80159	688.54803	493.82553	-43.00563	742.09344	487.58212	-42.12119	695.72693	480.42328	0.00000	0.00000	0.00000	-7.16635	432.20856	319.04041	102.36198	422.67618	438.66440	141.94598	394.94797	442.78903	69.29662	371.58621	428.26132	110.35538	354.99136	434.63171	351.30307	224.38058	398.67139	0.00000	0.00000	0.00000	421.45172	272.17447	368.98227	374.80292	93.99442	376.83807	335.47589	76.98286	307.75903	366.48712	111.96760	270.57898	104.44060	998.87238	260.23599	-51.68465	1000.11182	130.56725	-34.66530	726.35291	88.20663	-54.95289	686.71722	95.36916	-93.65728	747.23529	93.85023	-105.92567	704.54822	98.95925	-141.02963	483.73740	180.04797	-135.54225	486.42172	290.51828	-79.06842	383.90186	165.93289	-86.99419	341.49850	165.75829	-141.36313	388.50751	176.76971	-138.52435	347.31680	174.14970	-117.65919	83.96889	229.14902	-125.64805	96.46833	309.98911	-59.73961	41.38332	264.71191	-249.31892	29.70433	313.90683	-283.71112	49.05538	285.19928	-243.10965	31.40626	216.96841
938	3.74800	102.84380	993.09265	342.77304	-56.43151	973.78680	466.38013	7.91624	735.63092	500.25638	-0.87723	689.12274	493.91815	-49.98443	743.26483	487.40094	-49.62469	696.88330	480.42081	0.00000	0.00000	0.00000	-18.44189	433.27954	318.91547	90.21916	423.69553	438.74011	129.52061	396.00281	443.01816	57.55428	372.54880	428.47516	98.81698	356.05905	434.80850	340.57852	227.34669	399.38593	0.00000	0.00000	0.00000	411.78033	274.06702	369.08066	362.54041	96.49619	378.73441	322.60678	79.27312	310.02048	354.04324	113.58402	272.28821	99.49180	999.68713	260.04095	-56.80774	1000.78235	130.32654	-39.40080	727.98627	88.74914	-57.85638	687.72821	95.30701	-96.83269	748.07764	94.09930	-108.89397	705.36511	98.88128	-142.77252	483.84796	179.97554	-137.37222	486.21637	290.47131	-80.10779	384.28513	165.81090	-87.73576	341.82919	165.63142	-142.35448	388.59821	176.61815	-139.30502	347.37955	173.88736	-117.73981	83.98681	229.16154	-125.72734	96.59088	310.17236	-59.75785	41.38252	264.68051	-249.34697	29.66321	313.93805	-283.74091	48.96928	285.21323	-243.13689	31.40515	216.95448
939	3.75200	98.25828	993.74310	342.34314	-60.57318	974.90387	466.80853	0.78376	736.26483	500.19586	-8.47287	689.86169	494.04416	-56.96505	744.57703	487.22888	-57.20047	698.18817	480.41367	0.00000	0.00000	0.00000	-29.65693	434.46973	318.80579	80.43063	427.06726	438.97757	119.64222	399.31924	442.02759	45.94053	373.79681	428.66934	87.20432	357.28519	434.96420	329.55380	229.90579	400.02933	0.00000	0.00000	0.00000	401.15826	275.49359	368.83582	349.94705	98.82163	380.64117	309.29443	81.39975	312.33530	341.18277	114.78101	274.03787	94.54221	1000.62018	259.72638	-62.04945	1001.46918	130.11241	-42.57445	729.24084	89.05356	-60.93321	688.79535	95.29354	-100.08492	748.94385	94.45145	-111.95356	706.20422	98.92325	-145.23494	483.93881	179.55637	-139.51566	486.28781	290.15289	-81.15996	384.56888	165.59270	-88.55763	342.13345	165.44492	-143.51147	388.55902	176.48083	-141.15837	345.87012	174.93340	-117.82030	83.88205	229.23396	-125.81416	96.68800	310.17212	-59.75728	41.41346	264.61395	-249.35095	29.70047	313.96542	-283.73578	48.93653	285.20883	-243.13319	31.39514	216.92720
940	3.75600	93.62642	994.50952	341.79846	-64.57488	976.03345	467.33133	-6.00568	737.01526	500.27673	-16.10660	690.81635	494.18881	-63.99602	746.04980	486.97540	-64.73532	699.62396	480.41910	0.00000	0.00000	0.00000	-40.81298	435.78040	318.70569	68.48566	428.42401	438.94797	108.72828	401.39972	442.14792	34.20160	375.00412	428.79343	75.67136	358.64258	435.10080	318.31061	232.08154	400.57852	0.00000	0.00000	0.00000	390.55997	276.68829	368.49817	337.11539	100.85260	382.59576	295.84399	83.17683	314.78482	334.32388	119.28669	272.82654	92.16945	1004.03815	257.58463	-67.30527	1002.13580	130.02928	-46.06839	730.02594	89.48172	-64.10442	689.76190	95.45139	-103.55321	749.78424	94.91405	-115.24709	707.07648	99.08103	-145.84164	483.94040	179.68816	-141.62720	486.15726	289.96402	-82.40205	384.83542	165.21771	-89.51576	342.37140	165.14915	-144.49420	388.82455	176.19868	-142.20375	345.87659	174.80708	-117.85231	83.88583	229.19576	-125.84063	96.74570	310.14703	-59.76069	41.42666	264.55133	-249.36734	29.72719	313.96609	-283.73138	48.90016	285.17487	-243.12741	31.39196	216.88608
941	3.76000	89.10400	995.35931	341.20673	-68.68923	977.16736	467.82214	-13.34941	738.03296	500.08691	-23.78170	691.81067	494.35336	-71.43289	747.34546	486.56827	-72.28667	701.11938	480.42584	0.00000	0.00000	0.00000	-52.00446	437.18790	318.60126	56.69999	429.95782	438.97348	96.97224	402.93738	442.20105	22.49725	376.33807	428.92667	64.03761	360.11545	435.17691	306.92889	233.93640	401.12585	0.00000	0.00000	0.00000	379.78534	277.54944	368.09396	324.16095	102.70161	384.64297	282.02225	84.72412	317.27734	320.82968	119.77231	274.70139	87.17345	1005.03412	256.94897	-72.50896	1002.73956	130.10443	-49.50471	731.11774	89.95561	-67.35592	690.73926	95.71604	-107.13990	750.57587	95.35857	-118.59840	707.84967	99.45500	-147.28453	484.01236	179.42577	-143.54800	485.95889	289.73727	-83.72263	384.97562	164.71645	-90.55386	342.54626	164.81085	-145.75040	388.78473	176.11041	-143.33376	345.82568	174.68782	-118.01248	83.84227	229.27632	-125.87813	96.86272	310.13272	-59.73709	41.47906	264.48227	-249.35538	29.79554	313.96619	-283.73361	48.88081	285.12958	-243.12285	31.36788	216.85657
942	3.76400	84.50520	996.34216	340.55951	-72.70940	978.25262	468.31317	-20.43143	739.06458	500.03482	-31.39119	692.93219	494.50323	-78.06660	749.21704	486.47177	-79.79936	702.78564	480.41266	0.00000	0.00000	0.00000	-63.20704	438.74243	318.53296	44.92622	431.37170	438.94308	85.24318	404.45508	442.29559	10.92877	377.85498	429.16397	52.46270	361.56317	435.31964	295.56015	235.60803	401.67090	0.00000	0.00000	0.00000	368.82510	278.09686	367.64322	311.26657	104.62218	386.61328	267.91687	85.99721	319.88678	307.01630	120.01656	276.67676	82.15165	1006.06726	256.35068	-77.74340	1003.38220	130.21855	-53.07981	732.08295	90.41425	-70.82559	691.56647	95.85951	-110.86783	751.31897	95.89309	-122.09161	708.56091	99.94293	-148.48457	484.04883	179.14230	-145.73293	485.85037	289.51459	-85.16273	385.08365	164.15475	-91.74905	342.66742	164.41472	-147.11415	388.72427	176.00414	-144.49345	345.76892	174.68144	-118.11922	83.62850	229.45354	-125.89925	96.95185	310.06369	-59.70484	41.49783	264.40057	-249.32974	29.83632	313.97421	-283.72897	48.85645	285.10849	-243.11801	31.36810	216.82831
943	3.76800	79.87791	997.40533	339.86313	-76.90103	979.43286	468.83710	-27.56481	740.15399	500.03067	-39.08465	694.15875	494.63931	-85.08468	750.91760	486.29385	-87.40580	704.46539	480.44336	0.00000	0.00000	0.00000	-74.37159	440.41483	318.49603	33.19981	432.86176	439.01624	73.53728	406.01102	442.39359	-0.72779	379.27289	429.43649	40.83658	363.14182	435.53201	283.89493	236.93918	402.08475	0.00000	0.00000	0.00000	357.81238	278.27408	367.03635	297.50354	105.65532	388.74869	253.75897	86.99697	322.61615	293.12082	120.03340	278.69113	77.20393	1007.14410	255.70357	-83.07640	1003.94501	130.45920	-56.32216	733.89166	92.05276	-74.42909	692.36218	96.04839	-114.64127	751.98389	95.74748	-123.92883	708.69287	101.24860	-149.68173	484.03220	178.84978	-148.00217	485.72342	289.28702	-86.55148	385.10236	163.61502	-93.01767	342.70471	164.03815	-148.55212	388.40125	176.02419	-145.75526	345.65393	174.74103	-118.87776	83.55904	229.92479	-125.89358	97.03838	310.01489	-59.68675	41.54792	264.32693	-249.31456	29.88501	313.99890	-283.70441	48.82578	285.09744	-243.12639	31.35405	216.81387
944	3.77200	75.16053	998.55798	339.11359	-80.97480	980.54095	469.34552	-34.78828	741.33826	500.09619	-46.74520	695.42377	494.82806	-92.30235	752.40686	485.95367	-94.97176	706.14337	480.49567	0.00000	0.00000	0.00000	-85.41742	442.43265	318.50443	21.50444	434.39395	439.12537	61.90728	407.58002	442.46011	-12.43314	380.76208	429.61197	29.16878	364.64688	435.74667	272.27069	238.09608	402.57855	0.00000	0.00000	0.00000	346.65161	278.04199	366.46036	283.81665	106.75064	390.88284	239.22716	87.87630	325.34058	278.89624	119.73995	280.73740	72.23763	1008.23322	255.08141	-88.32648	1004.54480	130.76999	-60.13145	734.60425	92.53942	-78.15656	692.92639	96.22248	-118.83436	752.91833	95.17846	-127.73901	709.23395	101.84480	-150.87488	483.93555	178.59715	-150.04884	485.54623	289.09967	-88.03930	385.16251	163.12155	-94.33748	342.71741	163.70496	-149.78641	388.48999	175.97255	-147.00607	345.56247	174.81798	-118.95557	83.56883	229.90698	-125.89367	97.09413	309.94452	-59.65381	41.57033	264.27655	-249.29277	29.91353	314.01718	-283.70963	48.78168	285.08072	-243.11946	31.33129	216.80008
